<?xml version="1.0" standalone="no"?>
<!DOCTYPE svg PUBLIC "-//W3C//DTD SVG 1.1//EN" "http://www.w3.org/Graphics/SVG/1.1/DTD/svg11.dtd" >
<svg xmlns="http://www.w3.org/2000/svg">
<metadata>
This is a custom SVG webfont generated by Font Squirrel.
Copyright   : Copyright c 1991 Adobe Systems Incorporated  All Rights ReservedITC Avant Garde Gothic is a registered trademark of International Typeface Corporation
</metadata>
<defs>
<font id="webfont7QWrDOwh" horiz-adv-x="1265" >
<font-face units-per-em="2048" ascent="1638" descent="-410" />
<missing-glyph horiz-adv-x="632" />
<glyph unicode=" "  horiz-adv-x="632" />
<glyph unicode="&#x09;" horiz-adv-x="632" />
<glyph unicode="&#xa0;" horiz-adv-x="632" />
<glyph unicode="!" horiz-adv-x="681" d="M516 1516v-1016h-350v1016h350zM516 348v-348h-350v348h350z" />
<glyph unicode="&#x22;" horiz-adv-x="948" d="M356 907h-219l-67 609h356zM809 907h-219l-68 609h357z" />
<glyph unicode="#" d="M891 449l-49 -357h-232l49 357h-159l-49 -357h-234l49 357h-203l31 227h205l20 149h-204l30 228h205l45 323h234l-45 -323h159l45 323h234l-45 -323h227l-30 -228h-230l-20 -149h227l-31 -227h-229zM692 676l21 149h-160l-21 -149h160z" />
<glyph unicode="$" d="M780 1661v-207q129 -31 208 -132t77 -257h-317q-8 129 -113 129q-49 0 -80 -34t-31 -81q0 -72 58.5 -110.5t218.5 -100.5q90 -35 153.5 -86t93 -108.5t42 -104.5t12.5 -94q0 -23 -2 -48.5t-20.5 -82.5t-48.5 -104t-95.5 -99.5t-155.5 -81.5v-215h-276v207 q-170 39 -250 139q-90 115 -90 246v23h350q2 -18 6 -35.5t15.5 -46.5t37 -46.5t62.5 -17.5q43 0 80 33t37 88q0 57 -40 99t-149 83q-70 25 -107.5 41.5t-99 53.5t-94.5 76.5t-59.5 105t-26.5 147.5q0 172 95.5 273.5t232.5 140.5v207h276z" />
<glyph unicode="%" horiz-adv-x="1757" d="M74 1175.5q0 153.5 108.5 262t259.5 108.5q154 0 261.5 -108.5t107.5 -262t-108.5 -261t-260 -107.5t-260 107.5t-108.5 261zM301 1176q0 -57 42 -99.5t99.5 -42.5t99.5 42t42 101.5t-41 100.5t-100.5 41t-100.5 -41t-41 -102zM944 340q0 154 108.5 262.5t262.5 108.5 q152 0 260 -108.5t108 -262.5t-109.5 -262.5t-258.5 -108.5q-152 0 -261.5 107.5t-109.5 263.5zM1171 340q0 -59 42 -101t102 -42q57 0 99 42t42 101q0 61 -42 102t-99 41q-61 0 -102.5 -42t-41.5 -101zM442 0l627 1516h238l-629 -1516h-236z" />
<glyph unicode="&#x26;" horiz-adv-x="1552" d="M1135 891h358l-117 -281q-47 -113 -114 -200l206 -213l-231 -228l-178 185q-215 -184 -453 -185q-213 0 -359.5 128t-146.5 313q0 80 26 147.5t77 120.5t86 80.5t92 66.5q-143 145 -143 328q0 166 121.5 278.5t297.5 112.5q172 0 285 -108.5t113 -264.5q0 -70 -21.5 -129 t-60.5 -104t-63.5 -66.5t-63.5 -48.5l178 -180zM831 377l-241 244q-35 -29 -54.5 -46.5t-41 -54.5t-21.5 -76q0 -70 50 -109.5t124 -39.5q112 0 184 82zM653 1006q94 94 95 168q0 41 -24 68.5t-65 27.5q-37 0 -64.5 -26.5t-27.5 -74.5q0 -73 86 -163z" />
<glyph unicode="'" horiz-adv-x="495" d="M356 907h-219l-67 609h356z" />
<glyph unicode="(" horiz-adv-x="968" d="M881 -186v-355q-197 74 -345.5 194t-233.5 262t-127 289.5t-42 297t41 296t126 289t234.5 263t346.5 194.5v-356q-143 -80 -256 -265.5t-113 -424.5q0 -229 109.5 -415.5t259.5 -268.5z" />
<glyph unicode=")" horiz-adv-x="968" d="M88 1188v356q197 -74 345.5 -194.5t233.5 -263t127 -290t42 -297t-41 -296t-126 -288.5t-234.5 -262t-346.5 -194v355q143 80 256 265t113 425q0 229 -109.5 415.5t-259.5 268.5z" />
<glyph unicode="*" horiz-adv-x="1372" d="M1137 1104l-269 -84l170 -225l-190 -144l-168 236l-162 -236l-190 144l176 225l-268 84l73 223l262 -98l-6 287h244l-14 -287l264 98z" />
<glyph unicode="+" horiz-adv-x="1228" d="M451 682v354h327v-354h352v-328h-352v-354h-327v354h-353v328h353z" />
<glyph unicode="," horiz-adv-x="643" d="M500 348v-430q0 -133 -67.5 -190.5t-141.5 -57.5h-146v183h72q49 0 68.5 25.5t19.5 51.5v70h-160v348h355z" />
<glyph unicode="-" horiz-adv-x="575" d="M575 758v-334h-575v334h575z" />
<glyph unicode="." horiz-adv-x="643" d="M500 348v-348h-355v348h355z" />
<glyph unicode="/" horiz-adv-x="1214" d="M147 -205l543 1721h377l-541 -1721h-379z" />
<glyph unicode="0" d="M68 547v422q0 156 57 273.5t148.5 180t183.5 92t182 29.5q63 0 133 -16.5t147.5 -58.5t138 -104t100.5 -164.5t40 -231.5v-422q0 -150 -53 -266.5t-138 -181t-179.5 -96.5t-188.5 -32q-72 0 -145.5 18.5t-151.5 61.5t-138.5 107.5t-98 165t-37.5 223.5zM455 979v-442 q0 -88 38.5 -157t139.5 -69q178 0 178 226v442q0 225 -178 225q-72 0 -114 -42t-53 -87t-11 -96z" />
<glyph unicode="1" d="M848 1516v-1516h-387v1190h-248v326h635z" />
<glyph unicode="2" d="M659 326h515v-326h-1070v301l179 120q57 40 137 106.5t147 142.5q209 236 209 387q0 55 -34.5 101t-108.5 46q-53 0 -89 -23.5t-53.5 -65.5t-22.5 -73.5t-9 -76.5h-369q2 70 6 109.5t25.5 110t58.5 128.5q59 92 155.5 147.5t168 69.5t143.5 14q240 0 378 -133t138 -307 q0 -115 -41 -223.5t-125 -212t-154.5 -173t-183.5 -169.5z" />
<glyph unicode="3" d="M68 453h391q33 -139 174 -142q82 0 124 47.5t42 122.5q0 154 -203 154h-137v285h65q190 0 191 151q0 55 -26.5 94t-80.5 39q-111 0 -119 -131h-380q2 129 53 225.5t132 147.5t165 74.5t168 23.5q213 0 344 -123t131 -291q0 -207 -201 -317q285 -96 285 -367 q0 -197 -166 -336t-395 -139q-141 0 -272.5 54.5t-200.5 158.5q-66 95 -84 269z" />
<glyph unicode="4" d="M698 266h-667v283l678 967h360v-947h168v-303h-168v-266h-371v266zM420 569h303v475h-4z" />
<glyph unicode="5" d="M106 657l132 859h837v-326h-540l-33 -207q82 45 205 45q127 0 228 -49t159.5 -127t88 -164t29.5 -168q0 -92 -34.5 -185t-102 -176t-183.5 -136.5t-261 -53.5q-236 0 -389.5 124t-188.5 313h389q47 -63 107 -82q33 -12 72 -13q84 0 144 59.5t60 141.5q0 80 -55 139.5 t-152 59.5q-141 0 -198 -131z" />
<glyph unicode="6" d="M1008 1516l-334 -457l4 -4q18 8 74 8q117 0 222 -54.5t180 -175t75 -284.5q0 -254 -171 -416t-417 -162q-145 0 -269 52.5t-200 152.5q-129 145 -129 381q0 190 139 406l377 553h449zM424 522q0 -98 63.5 -154.5t141.5 -56.5q88 0 150.5 58.5t62.5 146.5 q0 80 -57.5 143.5t-155.5 63.5q-90 0 -147.5 -59.5t-57.5 -141.5z" />
<glyph unicode="7" d="M133 1516h987v-297l-532 -1219h-426l559 1190h-588v326z" />
<glyph unicode="8" d="M948 834q78 -33 130 -88.5t72.5 -117t28 -101.5t7.5 -76q0 -197 -158 -338.5t-393.5 -141.5t-395 141.5t-159.5 338.5q0 35 6 72.5t26.5 100t73 119t131.5 91.5q-147 117 -147 284q0 174 126 300t337 126q213 0 338 -128t125 -294q-1 -167 -148 -288zM494 1092 q0 -70 44 -105t93 -35q55 0 98 41t43 103q0 57 -42 96t-95 39q-55 0 -98 -39t-43 -100zM467 485q0 -72 47 -123t125 -51q70 0 115 53.5t45 118.5q0 68 -45 121t-121 53q-68 0 -117 -47t-49 -125z" />
<glyph unicode="9" d="M262 0l334 459l-4 4q-18 -8 -74 -8q-180 0 -328.5 139t-148.5 375q0 254 171 414.5t417 160.5q309 0 477 -198q127 -129 127 -377q-2 -199 -146 -414l-376 -555h-449zM846 995q0 98 -63.5 153.5t-145.5 55.5q-86 0 -147.5 -57t-61.5 -146q0 -80 56.5 -143t152.5 -63 q92 0 150.5 59t58.5 141z" />
<glyph unicode=":" horiz-adv-x="643" d="M500 348v-348h-355v348h355zM500 1137v-349h-355v349h355z" />
<glyph unicode=";" horiz-adv-x="643" d="M500 348v-430q0 -133 -67.5 -190.5t-141.5 -57.5h-146v183h72q49 0 68.5 25.5t19.5 51.5v70h-160v348h355zM500 1137v-349h-355v349h355z" />
<glyph unicode="&#x3c;" horiz-adv-x="1228" d="M438 516l697 -235v-359l-1041 438v316l1041 438v-358l-697 -236v-4z" />
<glyph unicode="=" horiz-adv-x="1228" d="M1130 952v-327h-1032v327h1032zM1130 412v-328h-1032v328h1032z" />
<glyph unicode="&#x3e;" horiz-adv-x="1228" d="M94 281l697 235v4l-697 236v358l1041 -438v-316l-1041 -438v359z" />
<glyph unicode="?" horiz-adv-x="1212" d="M475 997h-375q-2 18 -2 37q0 221 151.5 365.5t387.5 144.5q225 0 358 -134t133 -300q0 -88 -39.5 -169t-77.5 -122t-114 -110q-94 -88 -124 -132.5t-34 -95.5h-356q2 100 50 176t163 185q139 137 139 225q0 127 -119 127q-39 0 -66.5 -14.5t-41.5 -32t-21.5 -49t-9.5 -50 t-2 -51.5zM739 348v-348h-356v348h356z" />
<glyph unicode="@" horiz-adv-x="1531" d="M983 1122h213l-76 -446q-10 -68 -14 -98q-2 -59 55 -60q59 0 113.5 106.5t54.5 249.5q0 213 -148.5 350.5t-375.5 137.5q-262 0 -432 -186.5t-170 -432.5q0 -59 12 -124.5t51 -151.5t100.5 -152.5t175 -113.5t261.5 -47q225 0 432 75l43 -188q-205 -74 -475 -74 q-172 0 -313.5 51.5t-231.5 132t-151.5 185t-87 208t-25.5 204.5q0 207 96 388t282.5 296.5t424.5 115.5q317 0 521 -193.5t204 -477.5q0 -221 -121 -386t-281 -165q-150 0 -200 147q-51 -84 -108.5 -115.5t-135.5 -31.5q-131 0 -223.5 103t-92.5 259q0 170 115 314.5 t285 144.5q78 0 131 -35t72 -86h4zM922 788q0 66 -33 116t-103 50q-86 0 -146 -78.5t-60 -179.5q0 -90 46 -134t107 -44q84 0 136.5 76.5t52.5 193.5z" />
<glyph unicode="A" horiz-adv-x="1552" d="M1040 219h-526l-80 -219h-416l609 1516h305l602 -1516h-420zM776 1044l-155 -518h317l-156 518h-2h-4z" />
<glyph unicode="B" horiz-adv-x="1325" d="M137 0v1516h467q201 0 303.5 -30t182.5 -118q90 -92 90 -250q0 -205 -176 -305q250 -88 249 -352q0 -94 -35.5 -184.5t-103.5 -145.5q-100 -84 -196.5 -107.5t-299.5 -23.5h-481zM508 1176v-236h137q31 0 50.5 2t50 12.5t47 37t16.5 69.5q0 33 -12.5 56.5t-27.5 33.5 t-42 16.5t-42 7.5t-40 1h-137zM508 616v-276h182q193 0 193 145q0 45 -19.5 75t-55.5 40t-59.5 13t-58.5 3h-182z" />
<glyph unicode="C" horiz-adv-x="1703" d="M1235 567h405q-66 -268 -277.5 -432t-488.5 -164q-346 0 -572 235.5t-226 553.5q0 197 93 374t278.5 293.5t422.5 116.5q168 0 313.5 -60.5t236.5 -153.5t147.5 -194.5t72.5 -195.5h-405q-39 104 -132 184t-235 80q-184 0 -294.5 -134t-110.5 -308q0 -180 112.5 -315.5 t294.5 -135.5q246 0 365 256z" />
<glyph unicode="D" horiz-adv-x="1519" d="M117 0v1516h501q59 0 96.5 -2.5t108 -8.5t123.5 -24.5t116.5 -48t121 -81t104.5 -118.5q139 -190 139 -471q0 -162 -42 -295t-131 -240.5t-243.5 -167t-363.5 -59.5h-530zM504 1176v-836h166q104 0 179 34t115 94t58 131t18 157q0 166 -73 280q-92 139 -295 140h-168z " />
<glyph unicode="E" horiz-adv-x="1081" d="M137 0v1516h842v-340h-471v-236h457v-340h-457v-260h471v-340h-842z" />
<glyph unicode="F" horiz-adv-x="1036" d="M137 0v1516h828v-340h-457v-258h440v-340h-440v-578h-371z" />
<glyph unicode="G" horiz-adv-x="1748" d="M784 862h899q2 -27 3 -80q0 -246 -116 -434t-298 -283.5t-395 -95.5q-342 0 -573.5 232.5t-231.5 562.5q0 336 235.5 558t575.5 222q266 0 480 -155.5t277 -380.5h-434q-111 197 -334 196q-160 0 -286.5 -115.5t-126.5 -324.5q0 -221 127 -338t288 -117q141 0 236.5 65.5 t126.5 178.5h-453v309z" />
<glyph unicode="H" horiz-adv-x="1544" d="M137 0v1516h387v-570h496v570h387v-1516h-387v606h-496v-606h-387z" />
<glyph unicode="I" horiz-adv-x="661" d="M137 0v1516h387v-1516h-387z" />
<glyph unicode="J" horiz-adv-x="1183" d="M657 1516h387v-916q0 -186 -21.5 -275t-72.5 -155q-74 -96 -190.5 -147.5t-237.5 -51.5q-33 0 -69.5 3t-122.5 31t-149.5 77t-116 154.5t-52.5 250.5h412q2 -47 8 -78.5t34 -64.5t75 -33q41 0 66.5 18.5t35.5 54.5t12 58.5t2 61.5v1012z" />
<glyph unicode="K" horiz-adv-x="1447" d="M178 0v1516h387v-682h4l428 682h406l-502 -756l535 -760h-453l-414 655h-4v-655h-387z" />
<glyph unicode="L" horiz-adv-x="997" d="M147 0v1516h388v-1176h448v-340h-836z" />
<glyph unicode="M" horiz-adv-x="1873" d="M137 0v1516h498l301 -998h4l297 998h500v-1516h-357l13 1135l-4 4l-324 -1139h-256l-324 1139l-4 -4l13 -1135h-357z" />
<glyph unicode="N" horiz-adv-x="1554" d="M137 0v1516h334l586 -953l4 4l-17 949h371v-1516h-336l-577 922l-4 -2l10 -920h-371z" />
<glyph unicode="O" horiz-adv-x="1742" d="M131 1063q33 82 91.5 159.5t147.5 153.5t219 122t281 46q344 0 572.5 -231.5t228.5 -555t-228.5 -555t-574.5 -231.5q-229 0 -415.5 112t-283.5 286t-97 370q0 179 59 324zM459 762q0 -184 114.5 -317.5t303.5 -133.5q190 0 298.5 139.5t108.5 305.5q0 168 -109.5 308 t-302.5 140q-190 0 -301.5 -134t-111.5 -308z" />
<glyph unicode="P" horiz-adv-x="1302" d="M137 0v1516h496q197 0 298 -28t169 -83q178 -147 178 -401q0 -117 -44 -226.5t-116 -171.5q-84 -70 -179 -100.5t-263 -30.5h-168v-475h-371zM508 1176v-361h158q33 0 54 1t61 10.5t63.5 27.5t43 55t19.5 88.5t-19.5 87t-45 53t-66.5 27t-64.5 10.5t-60.5 1h-143z" />
<glyph unicode="Q" horiz-adv-x="1773" d="M1751 281v-308q-57 -4 -96 -4q-244 0 -357 119q-193 -119 -426 -119q-236 0 -422 116t-282 292t-96 373q0 203 95 382t280.5 295.5t421 116.5t424 -113.5t286.5 -288.5t98 -372q0 -248 -125 -438q55 -53 166 -53q19 0 33 2zM1239 553q45 82 51 217q0 195 -121.5 314.5 t-298.5 119.5q-158 0 -268 -102.5t-141 -280.5q127 51 215 51q301 0 563 -319zM1044 348l-63 73.5t-78.5 72t-125 73t-142.5 23.5q-66 0 -135 -25q53 -127 158 -192q102 -64 204 -64h6h17q86 0 159 39z" />
<glyph unicode="R" horiz-adv-x="1337" d="M137 0v1516h479q193 0 291.5 -25t175.5 -84q90 -72 138.5 -182.5t48.5 -231.5q0 -72 -19.5 -143.5t-60.5 -142t-118 -123t-179 -68.5l412 -516h-443l-350 489h-4v-489h-371zM508 1176v-422h137q80 0 135.5 22.5t79 59t31.5 68.5t8 67q0 100 -67.5 152.5t-182.5 52.5h-141 z" />
<glyph unicode="S" horiz-adv-x="1173" d="M1114 1073h-383q-4 31 -9 47.5t-18.5 44t-42 42t-69.5 14.5q-53 0 -93 -34t-40 -85q0 -66 49 -100.5t264 -131.5q201 -90 277.5 -191t76.5 -243q0 -88 -27.5 -167t-85 -147.5t-165 -109.5t-250.5 -41q-125 0 -224.5 32t-158.5 81t-97 115.5t-52.5 128t-14.5 125.5v49h385 q0 -115 51.5 -161t106.5 -46q66 0 106.5 45t40.5 100q0 70 -52 106t-245 118l-82 34q-33 14 -93 54.5t-97 82.5t-67.5 112.5t-30.5 150.5q0 135 81 240.5t199.5 155.5t249.5 50q119 0 228.5 -44t181.5 -128q92 -113 100 -299z" />
<glyph unicode="T" horiz-adv-x="1021" d="M319 0v1176h-299v340h984v-340h-297v-1176h-388z" />
<glyph unicode="U" horiz-adv-x="1429" d="M133 1516h387v-916q0 -53 5 -91t21.5 -89t59.5 -80t111 -29q55 0 94 20.5t57.5 45t28.5 71t11 74t1 78.5v916h387v-916q0 -180 -36.5 -282.5t-114.5 -182.5q-160 -164 -424 -164q-287 0 -436 162q-92 100 -122 197.5t-30 269.5v916z" />
<glyph unicode="V" horiz-adv-x="1478" d="M33 1516h397l305 -1063h4l308 1063h399l-508 -1516h-399z" />
<glyph unicode="W" horiz-adv-x="2009" d="M33 1516h393l203 -986h4l223 986h297l219 -990h4l207 990h391l-401 -1516h-340l-227 981h-5l-227 -981h-350z" />
<glyph unicode="X" horiz-adv-x="1554" d="M1034 1516h436l-462 -717l524 -799h-438l-328 537l-311 -537h-432l530 807l-469 709h438l260 -433z" />
<glyph unicode="Y" horiz-adv-x="1325" d="M471 0v551l-453 965h420l226 -609l227 609h416l-449 -965v-551h-387z" />
<glyph unicode="Z" horiz-adv-x="1021" d="M33 0v254l522 922h-522v340h956v-314l-483 -862h483v-340h-956z" />
<glyph unicode="[" horiz-adv-x="968" d="M821 1544v-356q-59 -2 -102 -21.5t-65.5 -45t-36 -64.5t-16.5 -70t-3 -74v-823q0 -55 7 -95t27.5 -83t68 -67.5t120.5 -28.5v-357q-225 12 -381 123q-78 55 -129 126t-69.5 152t-23.5 130t-5 114v795q0 72 6 126t26.5 129t70 143.5t124.5 123.5q148 109 381 123z" />
<glyph unicode="\" horiz-adv-x="1214" d="M1067 -205h-379l-541 1721h377z" />
<glyph unicode="]" horiz-adv-x="968" d="M147 -541v357q59 2 102.5 21.5t66 45t36 64.5t16.5 69.5t3 73.5v823q0 55 -7.5 95.5t-28 83.5t-67.5 67.5t-121 28.5v356q225 -12 381 -123q78 -55 129.5 -125.5t69.5 -151.5t23.5 -130t5.5 -115v-795q0 -72 -6.5 -126t-27 -128.5t-69.5 -143t-125 -124.5 q-148 -109 -381 -123z" />
<glyph unicode="^" horiz-adv-x="1228" d="M455 768h-367l356 748h340l357 -748h-369l-156 457h-4z" />
<glyph unicode="_" horiz-adv-x="1024" d="M1024 -256h-1024v102h1024v-102z" />
<glyph unicode="`" horiz-adv-x="1136" d="M332 1718l495 -262l-94 -199l-506 222z" />
<glyph unicode="a" horiz-adv-x="1441" d="M1317 1137v-1137h-340v123h-4q-41 -80 -133 -121t-199 -41q-260 0 -415.5 177t-155.5 431q0 270 168 438.5t403 168.5q127 0 211 -48.5t121 -111.5h4v121h340zM410 565q0 -43 16 -90t48 -92t89.5 -74.5t128.5 -29.5q143 0 214 93t71 197q0 113 -76 201t-211 88 t-207.5 -91t-72.5 -202z" />
<glyph unicode="b" horiz-adv-x="1419" d="M123 0v1516h340v-469q121 129 330 129q94 0 188 -35t179 -102.5t138.5 -188.5t53.5 -275q0 -291 -170 -452.5t-404 -161.5q-115 0 -203 47t-122 113h-4v-121h-326zM451 571q0 -123 76.5 -207.5t199.5 -84.5q125 0 205 87t80 203q0 115 -79 202t-200 87q-129 0 -205.5 -87 t-76.5 -200z" />
<glyph unicode="c" horiz-adv-x="1335" d="M926 432h346q-47 -201 -210 -335t-386 -134q-256 0 -432 177t-176 431q0 252 173 428.5t427 176.5q225 0 392 -133.5t210 -344.5h-344q-76 160 -246 160q-8 0 -16 1q-108 0 -179 -80q-76 -85 -75.5 -210t75 -206.5t195.5 -81.5q166 -1 246 151z" />
<glyph unicode="d" horiz-adv-x="1429" d="M1307 1516v-1516h-324v123h-4q-96 -160 -340 -160q-254 0 -411.5 174t-157.5 434q0 276 166.5 440.5t396.5 164.5q199 0 334 -136v476h340zM410 573q0 -131 81.5 -211.5t202.5 -80.5q145 0 218 92t73 200q0 113 -77 199t-210 86q-137 0 -212.5 -87t-75.5 -198z" />
<glyph unicode="e" horiz-adv-x="1323" d="M870 356h349q-82 -188 -232 -290q-143 -102 -323 -103q-246 0 -424.5 175t-178.5 427q0 244 171 427.5t425 183.5q258 0 429 -179.5t171 -441.5q0 -37 -8 -90h-852q14 -98 89 -156.5t178 -58.5q122 0 206 106zM401 694h517q-14 70 -78 132.5t-180.5 62.5t-180.5 -62.5 t-78 -132.5z" />
<glyph unicode="f" horiz-adv-x="643" d="M135 0v879h-127v258h127v59q0 348 434 348h49v-256h-38q-20 0 -41 -5t-42.5 -31.5t-21.5 -69.5v-45h143v-258h-143v-879h-340z" />
<glyph unicode="g" horiz-adv-x="1419" d="M1300 1137v-1000q0 -258 -67 -375q-72 -115 -223.5 -191.5t-352.5 -76.5q-141 0 -250.5 39t-174 101.5t-98.5 128t-44 131.5h393q49 -113 199 -113q25 0 47.5 2t67.5 19.5t77.5 47t58 92t25.5 148.5v35h-4q-33 -61 -111.5 -111.5t-199.5 -50.5q-240 0 -406.5 166 t-166.5 432q0 279 170 446t403 167q223 0 313 -144h5v107h339zM410 573q0 -131 80.5 -211.5t191.5 -80.5q123 0 201 79.5t78 202.5q0 133 -80 213t-197 80q-113 0 -193.5 -81t-80.5 -202z" />
<glyph unicode="h" horiz-adv-x="1294" d="M123 0v1516h340v-484h4q80 143 293 144q88 0 173 -32t136 -93q68 -80 87.5 -165t19.5 -251v-635h-340v618q0 238 -183 238q-190 0 -190 -225v-631h-340z" />
<glyph unicode="i" horiz-adv-x="585" d="M463 1137v-1137h-340v1137h340zM463 1516v-259h-340v259h340z" />
<glyph unicode="j" horiz-adv-x="657" d="M518 1137v-1112q0 -111 -14.5 -182.5t-56 -136t-129 -94.5t-222.5 -30h-84v258h45q35 0 58.5 11.5t36 25.5t18.5 41t7 44.5t1 49.5v1125h340zM518 1516v-259h-340v259h340z" />
<glyph unicode="k" horiz-adv-x="1210" d="M135 0v1516h340v-791h4l316 412h403l-428 -500l416 -637h-385l-322 547h-4v-547h-340z" />
<glyph unicode="l" horiz-adv-x="585" d="M123 0v1516h340v-1516h-340z" />
<glyph unicode="m" horiz-adv-x="1984" d="M123 0v1137h317v-121h4q90 160 314 160q219 0 327 -203q127 203 361 203q188 0 299 -115q78 -84 100.5 -166t22.5 -274v-621h-340v604q0 39 -1 62.5t-10.5 64.5t-26.5 64.5t-52 42t-84 18.5q-188 0 -189 -235v-621h-340v618q0 238 -170 238q-193 0 -192 -252v-604h-340z " />
<glyph unicode="n" horiz-adv-x="1294" d="M123 0v1137h317v-121h4q100 160 310 160q80 0 161.5 -29t128.5 -70q131 -113 132 -366v-711h-340v621q0 45 -3.5 72.5t-18.5 71.5t-54 67.5t-103 23.5q-55 0 -94 -19.5t-58.5 -43t-29.5 -62.5t-11 -59.5t-1 -53.5v-618h-340z" />
<glyph unicode="o" horiz-adv-x="1363" d="M70 569.5q0 108.5 38.5 213t111.5 193.5t192.5 143.5t269 54.5t269.5 -54.5t193 -143.5t111.5 -193.5t38.5 -213t-38.5 -213t-111.5 -193.5t-193 -143.5t-269.5 -54.5t-269 54.5t-192.5 143.5t-111.5 193.5t-38.5 213zM410 569q0 -123 79.5 -204.5t192.5 -81.5 t192.5 81.5t79.5 204.5t-79.5 205t-192.5 82t-192.5 -82t-79.5 -205z" />
<glyph unicode="p" horiz-adv-x="1427" d="M123 -379v1516h319v-125h2h5q129 164 354 164q143 0 254.5 -58.5t175 -153t94.5 -198.5t31 -209q0 -250 -157 -423t-396 -173q-207 0 -342 141v-481h-340zM733 279q127 0 206 87t79 201q0 113 -77 202t-208 89t-207.5 -89t-76.5 -202q0 -115 78.5 -201.5t205.5 -86.5z " />
<glyph unicode="q" horiz-adv-x="1429" d="M1307 1137v-1516h-340v496h-4q-113 -154 -345 -154q-238 0 -393 168t-155 416q0 287 164.5 458t406.5 171q78 0 141.5 -18.5t102.5 -49.5t59.5 -52.5t32.5 -43.5h4v125h326zM410 561q0 -102 75.5 -191t210.5 -89q127 0 205 88t78 198q0 106 -74 198.5t-213 92.5 q-129 0 -205.5 -88t-76.5 -209z" />
<glyph unicode="r" horiz-adv-x="743" d="M121 0v1137h319v-121h4q82 160 285 160v-342q-133 -4 -200.5 -47.5t-67.5 -161.5v-625h-340z" />
<glyph unicode="s" horiz-adv-x="1021" d="M940 817h-334q-2 14 -4 24.5t-11 27t-32.5 25.5t-58.5 9q-49 0 -73 -23.5t-24 -52.5q0 -72 175 -122q78 -20 117.5 -34t102 -43.5t94.5 -63.5t57.5 -89t25.5 -127q0 -174 -134 -280.5t-329 -106.5q-72 0 -142.5 17.5t-141 57.5t-120 117.5t-59.5 184.5h338 q14 -104 129 -105q47 0 83 25t36 64q0 18 -4 32.5t-18.5 27.5t-28 21.5t-42 21.5t-53 21.5l-71.5 25.5l-84 32q-121 39 -196 113.5t-75 183.5q0 164 129.5 269.5t311.5 105.5q66 0 129 -15.5t133 -51.5t117 -111t57 -181z" />
<glyph unicode="t" horiz-adv-x="718" d="M530 1516v-379h164v-258h-164v-879h-340v879h-167v258h167v379h340z" />
<glyph unicode="u" horiz-adv-x="1298" d="M1176 1137v-1137h-322v121h-4q-76 -158 -295 -158q-221 0 -334 143q-63 80 -82.5 153t-19.5 198v680h340v-629q0 -43 3 -70.5t18.5 -69.5t56.5 -64.5t104 -22.5q84 0 139.5 53t55.5 178v625h340z" />
<glyph unicode="v" horiz-adv-x="1212" d="M1178 1137l-410 -1137h-326l-407 1137h352l217 -709h4l217 709h353z" />
<glyph unicode="w" horiz-adv-x="1740" d="M14 1137h353l170 -707h4l186 707h287l188 -707h4l170 707h350l-348 -1137h-315l-191 735h-4l-190 -735h-316z" />
<glyph unicode="x" horiz-adv-x="1290" d="M825 1137h404l-383 -529l440 -608h-416l-227 352l-231 -352h-410l432 608l-383 529h408l184 -299z" />
<glyph unicode="y" horiz-adv-x="1175" d="M813 1137h361l-570 -1516h-360l180 436l-422 1080h363l227 -660h4z" />
<glyph unicode="z" horiz-adv-x="909" d="M432 258h445v-258h-846v233l479 646h-479v258h846v-258z" />
<glyph unicode="{" horiz-adv-x="1134" d="M989 1257h-112q-119 0 -119 -133v-428q0 -55 -17.5 -96t-39 -61.5t-57.5 -35t-56.5 -17.5t-50.5 -5v-8q78 -4 148.5 -47t72.5 -141v-435q0 -133 119 -133h112v-258h-262q-131 0 -222 72t-91 211v434q0 39 -22.5 66.5t-59.5 39t-64.5 15.5t-52.5 4v352q25 0 52.5 5.5 t64.5 17.5t59.5 42t22.5 73v442q0 139 91 211t222 72h262v-259z" />
<glyph unicode="|" horiz-adv-x="1136" d="M381 1516h375v-1721h-375v1721z" />
<glyph unicode="}" horiz-adv-x="1134" d="M258 1257h-113v259h263q131 0 222 -72t91 -211v-442q0 -43 22.5 -73t59.5 -42t64.5 -17.5t52.5 -5.5v-352q-25 0 -52.5 -4t-64.5 -15.5t-59.5 -39t-22.5 -66.5v-434q0 -139 -91 -211t-222 -72h-263v258h113q119 0 119 133v435q2 98 72.5 141t148.5 47v8q-31 2 -51.5 5 t-56 17.5t-57 35t-39 61.5t-17.5 96v428q0 133 -119 133z" />
<glyph unicode="~" horiz-adv-x="1228" d="M1018 772l74 -323q-45 -59 -71 -89t-78 -61t-112 -31q-86 0 -208 68q-127 72 -236 72q-61 0 -101 -38t-75 -104l-74 320q100 182 260 182q80 0 228 -66l44 -19l47 -20l41 -17q24 -9 42 -13t35 -4q39 0 75.5 24.5t54.5 46.5z" />
<glyph unicode="&#xa1;" horiz-adv-x="681" d="M516 1137v-349h-350v349h350zM516 637v-1016h-350v1016h350z" />
<glyph unicode="&#xa2;" d="M762 1475v-207q170 -47 268 -169t109 -239h-353q-45 82 -145 82q-72 0 -124 -50t-52 -124q0 -72 51 -122t125 -50q82 0 137 70h361q-25 -129 -119 -241t-246 -146v-216h-280v216q-104 35 -181 96t-114 132t-54.5 133t-17.5 124q0 96 35 189.5t121 180.5t211 126v215h268z " />
<glyph unicode="&#xa3;" d="M913 516h330q23 -72 23 -131q0 -53 -22.5 -113.5t-70 -124t-140.5 -105.5t-216 -42h-727v303h100q88 0 137.5 21.5t49.5 89.5q0 57 -37 102l-49 66h-262v272h98q-57 86 -57 193q0 190 150.5 344.5t393.5 154.5q150 0 271 -64.5t188 -176.5q59 -96 78 -265h-356 q-18 166 -174 166q-72 0 -118 -52t-46 -118q0 -98 69 -182h320v-272h-158q68 -80 68 -142q0 -66 -80 -137h84q168 0 168 139q-1 29 -15 74z" />
<glyph unicode="&#xa4;" d="M862 455h387q-12 -221 -161.5 -352.5t-397.5 -131.5q-254 0 -402.5 150.5t-148.5 402.5v17h-159l67 164h92v120h-159l67 164h92q10 252 176 403.5t435 151.5q158 0 294 -51q104 -41 183 -102l-144 -299q-66 51 -125 75q-88 37 -172 37q-131 0 -192.5 -61.5t-67.5 -153.5 h512l-67 -164h-445v-120h398l-68 -164h-330v-17q0 -213 176 -213q74 0 114 42.5t46 101.5z" />
<glyph unicode="&#xa5;" d="M440 0v342h-401v285h401v55l-53 106h-344v283h203l-244 445h410l223 -486l227 486h404l-240 -445h199v-283h-348l-54 -100v-61h402v-285h-404v-342h-381z" />
<glyph unicode="&#xa6;" horiz-adv-x="1136" d="M381 1516h375v-689h-375v689zM381 483h375v-688h-375v688z" />
<glyph unicode="&#xa7;" horiz-adv-x="1372" d="M1196 1122h-334q-33 119 -178 119q-143 0 -143 -108q0 -68 121 -121l372 -168q51 -23 85 -43.5t79 -60.5t68.5 -100t23.5 -136q0 -74 -29.5 -139.5t-59.5 -98.5t-87 -86q31 -43 48.5 -70.5t37 -89t19.5 -129.5q0 -180 -133.5 -313t-378.5 -133q-51 0 -110.5 9t-140.5 40 t-146.5 81t-116 142.5t-60.5 210.5h336q29 -174 231 -174q94 0 139.5 42t45.5 91q0 55 -46 90t-134 74l-351 162q-55 25 -88 45.5t-83 63.5t-75.5 108.5t-25.5 151.5q0 186 194 329q-63 100 -63 228q0 137 76 232t183.5 134t229.5 39q223 0 355.5 -125t138.5 -297zM850 582 l-379 170q-80 -39 -80 -113q0 -37 21.5 -65.5t39 -39t48.5 -24.5l413 -191q76 49 76 127q0 43 -33.5 74t-105.5 62z" />
<glyph unicode="&#xa8;" horiz-adv-x="1136" d="M166 1319v309h326v-309h-326zM643 1319v309h326v-309h-326z" />
<glyph unicode="&#xa9;" horiz-adv-x="1638" d="M1219 893h-215q-37 139 -173 139q-117 0 -168 -82t-51 -188q0 -115 55.5 -190.5t163.5 -75.5q16 0 34 4t49.5 17t57 54t38.5 103h217q-14 -170 -123 -268.5t-281 -98.5q-197 0 -313.5 128t-116.5 329q0 188 117 322.5t319 134.5q172 0 277 -99.5t113 -228.5zM825 1544 q324 0 551.5 -232.5t227.5 -553.5q0 -326 -229.5 -556.5t-553 -230.5t-554 231.5t-230.5 555.5q0 322 228 554t560 232zM823 1386q-260 0 -438 -184t-178 -444q0 -262 180 -445.5t434 -183.5t433.5 183.5t179.5 445.5q0 258 -177.5 443t-433.5 185z" />
<glyph unicode="&#xaa;" horiz-adv-x="788" d="M682 1524v-586h-203v59h-4q-39 -80 -149 -79q-123 0 -205 90t-82 223q0 143 86 228t205 85q104 0 147 -80h-2h4v60h203zM242 1231q0 -43 30.5 -82t87.5 -39q61 0 91 39t30 82q0 49 -31.5 85t-89 36t-88 -38t-30.5 -83z" />
<glyph unicode="&#xab;" horiz-adv-x="864" d="M360 971v-287l-104 -92l104 -96v-285l-264 260v234zM768 971v-287l-104 -92l104 -96v-285l-264 260v234z" />
<glyph unicode="&#xac;" horiz-adv-x="1228" d="M813 221v363h-745v327h1073v-690h-328z" />
<glyph unicode="&#xad;" horiz-adv-x="575" d="M575 758v-334h-575v334h575z" />
<glyph unicode="&#xae;" horiz-adv-x="1638" d="M485 1202h369q137 0 228.5 -60.5t91.5 -185.5q0 -147 -142 -211q55 -23 87 -66.5t38 -135.5q12 -172 27 -213h-211q-8 14 -13.5 58t-10.5 94t-5 57q-4 25 -9 41t-19.5 39.5t-46 35t-81.5 11.5h-86v-336h-217v872zM819 1053h-117v-246h105q150 0 149 133q0 113 -137 113z M825 1544q324 0 551.5 -232.5t227.5 -553.5q0 -326 -229.5 -556.5t-553 -230.5t-554 231.5t-230.5 555.5q0 322 228 554t560 232zM823 1386q-260 0 -438 -184t-178 -444t181 -444.5t433 -184.5q254 0 433.5 183.5t179.5 445.5q0 256 -177.5 442t-433.5 186z" />
<glyph unicode="&#xaf;" horiz-adv-x="1136" d="M936 1606v-258h-735v258h735z" />
<glyph unicode="&#xb0;" horiz-adv-x="819" d="M409.5 1040q49.5 0 85 37t35.5 88q0 49 -35.5 87t-85 38t-85 -38t-35.5 -87q0 -51 35.5 -88t85 -37zM409.5 872q-122.5 0 -207.5 85t-85 208t85 208t207.5 85t207.5 -85t85 -208t-85 -208t-207.5 -85z" />
<glyph unicode="&#xb1;" horiz-adv-x="1228" d="M451 860v279h327v-279h352v-328h-352v-266h-327v266h-353v328h353zM98 -168v328h1032v-328h-1032z" />
<glyph unicode="&#xb2;" horiz-adv-x="833" d="M457 823h313v-217h-698v199q78 49 119.5 77.5t105 78t97.5 86t60.5 86t26.5 96.5q0 86 -71 86q-88 0 -97 -139h-252q4 137 60 217q98 141 307 141q156 0 247 -81t91 -187q0 -201 -309 -439v-4z" />
<glyph unicode="&#xb3;" horiz-adv-x="833" d="M45 887h264q6 -23 12.5 -36t30 -27.5t60.5 -14.5q98 0 98 88q0 31 -24.5 54.5t-75.5 23.5h-113v184h49q123 0 123 86q0 68 -66 68q-33 0 -50 -14.5t-19 -25.5t-4 -32h-258q0 88 36.5 149.5t95 90t108.5 41t100 12.5q139 0 225 -75t86 -177q0 -125 -117 -188 q80 -27 125 -85.5t45 -131.5q0 -119 -108.5 -204t-257.5 -85q-94 0 -178.5 32.5t-129.5 94.5q-47 63 -57 172z" />
<glyph unicode="&#xb4;" horiz-adv-x="1136" d="M801 1737l108 -242l-503 -223l-97 201z" />
<glyph unicode="&#xb5;" horiz-adv-x="1298" d="M106 -389v1526h340v-562q0 -127 46.5 -210.5t155 -83.5t155.5 84t47 210v562h340v-1137h-324v141h-2h-4q-16 -53 -69.5 -107t-139.5 -54q-76 0 -127 33.5t-73 76.5h-5v-479h-340z" />
<glyph unicode="&#xb6;" horiz-adv-x="1435" d="M420 -211v938h-29q-70 0 -137.5 20.5t-130 63.5t-100 121t-37.5 182q0 401 520 402h737v-242h-100v-1485h-262v1485h-199v-1485h-262z" />
<glyph unicode="&#xb7;" horiz-adv-x="643" d="M500 692v-348h-355v348h355z" />
<glyph unicode="&#xb8;" horiz-adv-x="1136" d="M637 0l-59 -109q18 6 43 7q68 0 121 -48.5t53 -138.5q0 -84 -60.5 -148.5t-169.5 -64.5q-23 0 -48 5t-65 21.5t-71 59.5t-39 107h156l12 -28q4 -9 18.5 -19.5t36.5 -10.5q35 0 54.5 21.5t19.5 56.5q0 31 -19.5 50.5t-50.5 19.5q-33 0 -55 -31l-133 72l86 178h170z" />
<glyph unicode="&#xb9;" horiz-adv-x="833" d="M553 1516v-910h-252v692h-160v218h412z" />
<glyph unicode="&#xba;" horiz-adv-x="788" d="M76 1231q0 121 84 217t233.5 96t233.5 -96t84 -217t-84 -217t-233.5 -96t-233.5 96t-84 217zM279 1231q0 -51 33.5 -86t80.5 -35t81 35t34 86t-34 86t-81 35t-80.5 -35t-33.5 -86z" />
<glyph unicode="&#xbb;" horiz-adv-x="864" d="M504 211v287l106 92l-106 96v285l264 -269v-231zM96 211v287l105 92l-105 96v285l264 -269v-231z" />
<glyph unicode="&#xbc;" horiz-adv-x="1843" d="M1020 1516h280l-636 -1516h-279zM510 1516v-910h-252v692h-160v218h412zM1384 158h-428v176l439 575h241v-559h107v-192h-107v-158h-252v158zM1384 590l-157 -240h162v240h-5z" />
<glyph unicode="&#xbd;" horiz-adv-x="1884" d="M1020 1516h280l-636 -1516h-279zM510 1516v-910h-252v692h-160v218h412zM1473 217h313v-217h-699v199q78 49 120 77.5t105.5 77.5t97.5 86t60.5 86t26.5 97q0 86 -72 86q-88 0 -96 -140h-252q4 137 60 217q98 141 307 142q156 0 247 -81t91 -188q0 -201 -309 -438v-4z " />
<glyph unicode="&#xbe;" horiz-adv-x="2048" d="M1438 350h172v248h-4zM1606 158h-428v176l438 575h242v-559h106v-192h-106v-158h-252v158zM1251 1516h281l-637 -1516h-279zM84 887h264q6 -23 12.5 -36t30 -27.5t60.5 -14.5q98 0 98 88q0 31 -24.5 54.5t-75.5 23.5h-113v184h49q123 0 123 86q0 68 -66 68 q-33 0 -50 -14.5t-19 -25.5t-4 -32h-258q0 88 36.5 149.5t95 90t108.5 41t100 12.5q139 0 225 -75t86 -177q0 -125 -117 -188q80 -27 125 -85.5t45 -131.5q0 -119 -108.5 -204t-257.5 -85q-94 0 -178.5 32.5t-129.5 94.5q-47 63 -57 172z" />
<glyph unicode="&#xbf;" horiz-adv-x="1212" d="M735 137h375q2 -18 2 -37q0 -221 -151.5 -365.5t-387.5 -144.5q-223 0 -356 134.5t-133 300.5q0 68 18.5 126t58.5 111t69.5 84t84.5 82q94 86 124 131t34 94h356q-2 -98 -50 -174t-163 -186q-78 -76 -108.5 -126t-30.5 -99q0 -127 117 -127q39 0 66.5 14t42 31.5 t21.5 49.5t9 50t2 51zM473 788v349h356v-349h-356z" />
<glyph unicode="&#xc0;" horiz-adv-x="1552" d="M1040 219h-526l-80 -219h-416l609 1516h305l602 -1516h-420zM776 1044l-155 -518h317l-156 518h-2h-4zM541 2015l495 -262l-94 -199l-506 222z" />
<glyph unicode="&#xc1;" horiz-adv-x="1552" d="M1040 219h-526l-80 -219h-416l609 1516h305l602 -1516h-420zM776 1044l-155 -518h317l-156 518h-2h-4zM1010 2034l108 -242l-504 -223l-96 200z" />
<glyph unicode="&#xc2;" horiz-adv-x="1552" d="M1040 219h-526l-80 -219h-416l609 1516h305l602 -1516h-420zM776 1044l-155 -518h317l-156 518h-2h-4zM778 1726l-94 -118h-332l320 340h221l307 -340h-328z" />
<glyph unicode="&#xc3;" horiz-adv-x="1552" d="M1040 219h-526l-80 -219h-416l609 1516h305l602 -1516h-420zM776 1044l-155 -518h317l-156 518h-2h-4zM1069 1921l123 -174q-121 -76 -231 -76q-35 0 -166 26.5t-162 26.5q-47 0 -148 -38l-123 180q129 72 226 71q45 0 215 -36q55 -14 117 -15q63 0 149 35z" />
<glyph unicode="&#xc4;" horiz-adv-x="1552" d="M1040 219h-526l-80 -219h-416l609 1516h305l602 -1516h-420zM776 1044l-155 -518h317l-156 518h-2h-4zM375 1616v309h325v-309h-325zM852 1616v309h326v-309h-326z" />
<glyph unicode="&#xc5;" horiz-adv-x="1552" d="M1040 219h-526l-80 -219h-416l609 1516h305l602 -1516h-420zM776 1044l-155 -518h317l-156 518h-2h-4zM1034 1824.5q0 -106.5 -75.5 -182t-182 -75.5t-182.5 75.5t-76 182t76 182.5t182.5 76t182 -76t75.5 -182.5zM686 1825q0 -37 26.5 -62.5t63.5 -25.5t63.5 25.5 t26.5 64.5q0 37 -25.5 63.5t-64.5 26.5t-64.5 -27.5t-25.5 -64.5z" />
<glyph unicode="&#xc6;" horiz-adv-x="1996" d="M1053 254h-441l-163 -254h-469l1052 1516h862v-340h-467v-236h453v-340h-453v-260h467v-340h-841v254zM770 553h283v412h-4z" />
<glyph unicode="&#xc7;" horiz-adv-x="1703" d="M801 -250l-133 72l77 160q-297 43 -483 267t-186 511q0 197 93 374t278.5 293.5t422.5 116.5q168 0 313.5 -60.5t236.5 -153.5t147.5 -194.5t72.5 -195.5h-405q-39 104 -132 184t-235 80q-184 0 -294.5 -134t-110.5 -308q0 -180 112.5 -315.5t294.5 -135.5q246 0 365 256 h405q-63 -258 -263.5 -420.5t-467.5 -173.5l-45 -82q18 6 43 7q61 0 117.5 -48.5t56.5 -138.5q0 -84 -60 -148.5t-169 -64.5q-23 0 -48.5 5t-65.5 21.5t-70.5 59.5t-38.5 107h155l13 -28q4 -9 18 -19.5t37 -10.5q35 0 54.5 21.5t19.5 56.5q0 31 -19.5 50.5t-50.5 19.5 q-32 0 -55 -31z" />
<glyph unicode="&#xc8;" horiz-adv-x="1081" d="M137 0v1516h842v-340h-471v-236h457v-340h-457v-260h471v-340h-842zM305 2056l496 -262l-94 -199l-506 222z" />
<glyph unicode="&#xc9;" horiz-adv-x="1081" d="M137 0v1516h842v-340h-471v-236h457v-340h-457v-260h471v-340h-842zM774 2075l109 -242l-504 -223l-96 200z" />
<glyph unicode="&#xca;" horiz-adv-x="1081" d="M137 0v1516h842v-340h-471v-236h457v-340h-457v-260h471v-340h-842zM543 1767l-94 -118h-332l319 340h221l308 -340h-328z" />
<glyph unicode="&#xcb;" horiz-adv-x="1081" d="M137 0v1516h842v-340h-471v-236h457v-340h-457v-260h471v-340h-842zM139 1657v309h326v-309h-326zM616 1657v309h326v-309h-326z" />
<glyph unicode="&#xcc;" horiz-adv-x="661" d="M137 0v1516h387v-1516h-387zM43 2056l496 -262l-95 -199l-505 222z" />
<glyph unicode="&#xcd;" horiz-adv-x="661" d="M137 0v1516h387v-1516h-387zM614 2075l109 -242l-504 -223l-96 200z" />
<glyph unicode="&#xce;" horiz-adv-x="661" d="M137 0v1516h387v-1516h-387zM332 1767l-94 -118h-332l319 340h221l308 -340h-328z" />
<glyph unicode="&#xcf;" horiz-adv-x="661" d="M137 0v1516h387v-1516h-387zM-72 1657v309h326v-309h-326zM406 1657v309h325v-309h-325z" />
<glyph unicode="&#xd0;" horiz-adv-x="1519" d="M0 606v340h137v570h510q74 0 118 -2.5t128 -16.5t146.5 -42t137 -85t132.5 -137q139 -190 139 -471q0 -330 -190.5 -546t-548.5 -216h-572v606h-137zM745 946v-340h-221v-266h166q104 0 179 34t115 94t58.5 131t18.5 157q0 166 -74 280q-92 139 -295 140h-168v-230h221z " />
<glyph unicode="&#xd1;" horiz-adv-x="1554" d="M137 0v1516h334l586 -953l4 4l-17 949h371v-1516h-336l-577 922l-4 -2l10 -920h-371zM1069 1921l123 -174q-121 -76 -231 -76q-35 0 -166 26.5t-162 26.5q-47 0 -148 -38l-123 180q129 72 226 71q45 0 215 -36q55 -14 117 -15q63 0 149 35z" />
<glyph unicode="&#xd2;" horiz-adv-x="1742" d="M131 1063q33 82 91.5 159.5t147.5 153.5t219 122t281 46q344 0 572.5 -231.5t228.5 -555t-228.5 -555t-574.5 -231.5q-229 0 -415.5 112t-283.5 286t-97 370q0 179 59 324zM459 762q0 -184 114.5 -317.5t303.5 -133.5q190 0 298.5 139.5t108.5 305.5q0 168 -109.5 308 t-302.5 140q-190 0 -301.5 -134t-111.5 -308zM635 2056l495 -262l-94 -199l-506 222z" />
<glyph unicode="&#xd3;" horiz-adv-x="1742" d="M131 1063q33 82 91.5 159.5t147.5 153.5t219 122t281 46q344 0 572.5 -231.5t228.5 -555t-228.5 -555t-574.5 -231.5q-229 0 -415.5 112t-283.5 286t-97 370q0 179 59 324zM459 762q0 -184 114.5 -317.5t303.5 -133.5q190 0 298.5 139.5t108.5 305.5q0 168 -109.5 308 t-302.5 140q-190 0 -301.5 -134t-111.5 -308zM1104 2075l108 -242l-503 -223l-97 200z" />
<glyph unicode="&#xd4;" horiz-adv-x="1742" d="M131 1063q33 82 91.5 159.5t147.5 153.5t219 122t281 46q344 0 572.5 -231.5t228.5 -555t-228.5 -555t-574.5 -231.5q-229 0 -415.5 112t-283.5 286t-97 370q0 179 59 324zM459 762q0 -184 114.5 -317.5t303.5 -133.5q190 0 298.5 139.5t108.5 305.5q0 168 -109.5 308 t-302.5 140q-190 0 -301.5 -134t-111.5 -308zM872 1767l-94 -118h-332l320 340h221l307 -340h-327z" />
<glyph unicode="&#xd5;" horiz-adv-x="1742" d="M131 1063q33 82 91.5 159.5t147.5 153.5t219 122t281 46q344 0 572.5 -231.5t228.5 -555t-228.5 -555t-574.5 -231.5q-229 0 -415.5 112t-283.5 286t-97 370q0 179 59 324zM459 762q0 -184 114.5 -317.5t303.5 -133.5q190 0 298.5 139.5t108.5 305.5q0 168 -109.5 308 t-302.5 140q-190 0 -301.5 -134t-111.5 -308zM1163 1921l123 -174q-121 -76 -231 -76q-35 0 -166 26.5t-162 26.5q-47 0 -147 -38l-123 180q129 72 225 71q45 0 215 -36q55 -14 117 -15q63 0 149 35z" />
<glyph unicode="&#xd6;" horiz-adv-x="1742" d="M131 1063q33 82 91.5 159.5t147.5 153.5t219 122t281 46q344 0 572.5 -231.5t228.5 -555t-228.5 -555t-574.5 -231.5q-229 0 -415.5 112t-283.5 286t-97 370q0 179 59 324zM459 762q0 -184 114.5 -317.5t303.5 -133.5q190 0 298.5 139.5t108.5 305.5q0 168 -109.5 308 t-302.5 140q-190 0 -301.5 -134t-111.5 -308zM469 1657v309h326v-309h-326zM946 1657v309h326v-309h-326z" />
<glyph unicode="&#xd7;" horiz-adv-x="1228" d="M612 729l269 268l233 -233l-268 -266l264 -267l-231 -231l-265 264l-268 -264l-231 231l266 267l-266 266l231 231z" />
<glyph unicode="&#xd8;" horiz-adv-x="1742" d="M1214 1473l132 178l241 -176l-131 -177q215 -233 215 -540q0 -322 -228.5 -554.5t-574.5 -232.5q-174 0 -342 72l-129 -172l-241 178l127 170q-211 227 -211 539q0 332 230 559t570 227q188 1 342 -71zM514 530l485 654q-57 20 -127 20q-195 0 -304 -136t-109 -304 q0 -132 55 -234zM1225 989l-486 -655q68 -23 135 -23q100 0 182.5 42t129.5 109.5t72.5 143.5t25.5 150q0 122 -59 233z" />
<glyph unicode="&#xd9;" horiz-adv-x="1429" d="M133 1516h387v-916q0 -53 5 -91t21.5 -89t59.5 -80t111 -29q55 0 94 20.5t57.5 45t28.5 71t11 74t1 78.5v916h387v-916q0 -180 -36.5 -282.5t-114.5 -182.5q-160 -164 -424 -164q-287 0 -436 162q-92 100 -122 197.5t-30 269.5v916zM408 2056l495 -262l-94 -199l-506 222 z" />
<glyph unicode="&#xda;" horiz-adv-x="1429" d="M133 1516h387v-916q0 -53 5 -91t21.5 -89t59.5 -80t111 -29q55 0 94 20.5t57.5 45t28.5 71t11 74t1 78.5v916h387v-916q0 -180 -36.5 -282.5t-114.5 -182.5q-160 -164 -424 -164q-287 0 -436 162q-92 100 -122 197.5t-30 269.5v916zM1020 2075l108 -242l-503 -223 l-97 200z" />
<glyph unicode="&#xdb;" horiz-adv-x="1429" d="M133 1516h387v-916q0 -53 5 -91t21.5 -89t59.5 -80t111 -29q55 0 94 20.5t57.5 45t28.5 71t11 74t1 78.5v916h387v-916q0 -180 -36.5 -282.5t-114.5 -182.5q-160 -164 -424 -164q-287 0 -436 162q-92 100 -122 197.5t-30 269.5v916zM717 1767l-94 -118h-332l319 340h221 l308 -340h-328z" />
<glyph unicode="&#xdc;" horiz-adv-x="1429" d="M133 1516h387v-916q0 -53 5 -91t21.5 -89t59.5 -80t111 -29q55 0 94 20.5t57.5 45t28.5 71t11 74t1 78.5v916h387v-916q0 -180 -36.5 -282.5t-114.5 -182.5q-160 -164 -424 -164q-287 0 -436 162q-92 100 -122 197.5t-30 269.5v916zM313 1657v309h326v-309h-326z M791 1657v309h325v-309h-325z" />
<glyph unicode="&#xdd;" horiz-adv-x="1325" d="M471 0v551l-453 965h420l226 -609l227 609h416l-449 -965v-551h-387zM967 2075l108 -242l-504 -223l-96 200z" />
<glyph unicode="&#xde;" horiz-adv-x="1302" d="M137 0v1516h371v-199l125 2q197 0 298 -27.5t169 -83.5q178 -147 178 -401q0 -117 -44 -226.5t-116 -170.5q-84 -70 -179 -100.5t-263 -30.5h-168v-279h-371zM508 979v-361h158q33 0 54 1.5t61 10.5t63.5 27.5t43 55.5t19.5 88t-19.5 87t-45 53t-66.5 26.5t-64.5 10.5 t-60.5 1h-143z" />
<glyph unicode="&#xdf;" horiz-adv-x="1421" d="M459 0h-340v874q0 188 26.5 291t104.5 191q86 96 207 147t241 51q209 0 345.5 -129t136.5 -299q0 -168 -146 -264q131 -33 224.5 -141.5t93.5 -253.5q0 -197 -148.5 -350.5t-380.5 -153.5q-94 0 -172 32t-110.5 59.5t-81.5 76.5v-131zM459 971v-543h190q8 -27 16.5 -45 t27 -46t52 -42t80.5 -14q84 0 135.5 56t51.5 128q0 18 -3 37.5t-17.5 49.5t-38 51.5t-67.5 36.5t-104 15h-184v256h70q78 0 125 43t47 113q0 76 -50.5 123t-130.5 47q-200 0 -200 -266z" />
<glyph unicode="&#xe0;" horiz-adv-x="1441" d="M1317 1137v-1137h-340v123h-4q-41 -80 -133 -121t-199 -41q-260 0 -415.5 177t-155.5 431q0 270 168 438.5t403 168.5q127 0 211 -48.5t121 -111.5h4v121h340zM410 565q0 -43 16 -90t48 -92t89.5 -74.5t128.5 -29.5q143 0 214 93t71 197q0 113 -76 201t-211 88 t-207.5 -91t-72.5 -202zM485 1718l496 -262l-94 -199l-506 222z" />
<glyph unicode="&#xe1;" horiz-adv-x="1441" d="M1317 1137v-1137h-340v123h-4q-41 -80 -133 -121t-199 -41q-260 0 -415.5 177t-155.5 431q0 270 168 438.5t403 168.5q127 0 211 -48.5t121 -111.5h4v121h340zM410 565q0 -43 16 -90t48 -92t89.5 -74.5t128.5 -29.5q143 0 214 93t71 197q0 113 -76 201t-211 88 t-207.5 -91t-72.5 -202zM954 1737l109 -242l-504 -223l-96 201z" />
<glyph unicode="&#xe2;" horiz-adv-x="1441" d="M1317 1137v-1137h-340v123h-4q-41 -80 -133 -121t-199 -41q-260 0 -415.5 177t-155.5 431q0 270 168 438.5t403 168.5q127 0 211 -48.5t121 -111.5h4v121h340zM410 565q0 -43 16 -90t48 -92t89.5 -74.5t128.5 -29.5q143 0 214 93t71 197q0 113 -76 201t-211 88 t-207.5 -91t-72.5 -202zM723 1430l-94 -119h-332l319 340h222l307 -340h-328z" />
<glyph unicode="&#xe3;" horiz-adv-x="1441" d="M1317 1137v-1137h-340v123h-4q-41 -80 -133 -121t-199 -41q-260 0 -415.5 177t-155.5 431q0 270 168 438.5t403 168.5q127 0 211 -48.5t121 -111.5h4v121h340zM410 565q0 -43 16 -90t48 -92t89.5 -74.5t128.5 -29.5q143 0 214 93t71 197q0 113 -76 201t-211 88 t-207.5 -91t-72.5 -202zM1014 1583l123 -174q-121 -76 -232 -76q-37 0 -168 26.5t-159 26.5q-47 0 -148 -38l-123 180q127 72 225 71q45 0 216 -36q55 -14 116.5 -14.5t149.5 34.5z" />
<glyph unicode="&#xe4;" horiz-adv-x="1441" d="M1317 1137v-1137h-340v123h-4q-41 -80 -133 -121t-199 -41q-260 0 -415.5 177t-155.5 431q0 270 168 438.5t403 168.5q127 0 211 -48.5t121 -111.5h4v121h340zM410 565q0 -43 16 -90t48 -92t89.5 -74.5t128.5 -29.5q143 0 214 93t71 197q0 113 -76 201t-211 88 t-207.5 -91t-72.5 -202zM319 1319v309h326v-309h-326zM797 1319v309h325v-309h-325z" />
<glyph unicode="&#xe5;" horiz-adv-x="1441" d="M1317 1137v-1137h-340v123h-4q-41 -80 -133 -121t-199 -41q-260 0 -415.5 177t-155.5 431q0 270 168 438.5t403 168.5q127 0 211 -48.5t121 -111.5h4v121h340zM410 565q0 -43 16 -90t48 -92t89.5 -74.5t128.5 -29.5q143 0 214 93t71 197q0 113 -76 201t-211 88 t-207.5 -91t-72.5 -202zM979 1486.5q0 -106.5 -76 -182t-182.5 -75.5t-182 75.5t-75.5 182t75.5 182.5t182 76t182.5 -76t76 -182.5zM631 1487q0 -37 26.5 -62.5t63.5 -25.5t63.5 25.5t26.5 64.5q0 37 -25.5 63.5t-64.5 26.5t-64.5 -27.5t-25.5 -64.5z" />
<glyph unicode="&#xe6;" horiz-adv-x="2234" d="M2161 463h-854q16 -113 94 -163t166 -50q55 0 102 19.5t68.5 38t50.5 50.5h342q-172 -395 -539 -395q-209 8 -303 150h-4v-113h-309v113h-4q-33 -63 -125 -108.5t-199 -41.5q-135 0 -248.5 57.5t-183.5 147.5t-107.5 194.5t-37.5 204.5q0 258 164.5 433.5t420.5 175.5 q100 0 192.5 -43t123.5 -107h4v111h309v-109h4q104 139 311 148q225 0 397.5 -171t172.5 -458q0 -51 -8 -84zM1315 688h518q-55 199 -254 199q-119 0 -185.5 -63.5t-78.5 -135.5zM410 575q0 -131 82.5 -212.5t205.5 -81.5q117 0 197 81.5t80 202.5q0 127 -78 210t-211 83 q-137 0 -206.5 -96.5t-69.5 -186.5z" />
<glyph unicode="&#xe7;" horiz-adv-x="1335" d="M610 -250l-133 72l74 153q-211 43 -347 210t-136 386q0 252 173 428.5t427 176.5q225 0 392 -133.5t210 -344.5h-344q-80 152 -246 152q-119 6 -194.5 -76t-75.5 -205q0 -125 74.5 -206.5t195.5 -81.5q166 0 246 151h346q-45 -193 -196.5 -324t-360.5 -141l-41 -76 q18 6 43 7q61 0 117.5 -48.5t56.5 -138.5q0 -84 -60.5 -148.5t-168.5 -64.5q-23 0 -48.5 5t-65.5 21.5t-71 59.5t-39 107h156l12 -28q4 -9 18.5 -19.5t37.5 -10.5q35 0 54 21.5t19 56.5q0 31 -19.5 50.5t-49.5 19.5q-33 0 -56 -31z" />
<glyph unicode="&#xe8;" horiz-adv-x="1323" d="M870 356h349q-82 -188 -232 -290q-143 -102 -323 -103q-246 0 -424.5 175t-178.5 427q0 244 171 427.5t425 183.5q258 0 429 -179.5t171 -441.5q0 -37 -8 -90h-852q14 -98 89 -156.5t178 -58.5q122 0 206 106zM401 694h517q-14 70 -78 132.5t-180.5 62.5t-180.5 -62.5 t-78 -132.5zM426 1718l496 -262l-95 -199l-505 222z" />
<glyph unicode="&#xe9;" horiz-adv-x="1323" d="M870 356h349q-82 -188 -232 -290q-143 -102 -323 -103q-246 0 -424.5 175t-178.5 427q0 244 171 427.5t425 183.5q258 0 429 -179.5t171 -441.5q0 -37 -8 -90h-852q14 -98 89 -156.5t178 -58.5q122 0 206 106zM401 694h517q-14 70 -78 132.5t-180.5 62.5t-180.5 -62.5 t-78 -132.5zM895 1737l109 -242l-504 -223l-97 201z" />
<glyph unicode="&#xea;" horiz-adv-x="1323" d="M870 356h349q-82 -188 -232 -290q-143 -102 -323 -103q-246 0 -424.5 175t-178.5 427q0 244 171 427.5t425 183.5q258 0 429 -179.5t171 -441.5q0 -37 -8 -90h-852q14 -98 89 -156.5t178 -58.5q122 0 206 106zM401 694h517q-14 70 -78 132.5t-180.5 62.5t-180.5 -62.5 t-78 -132.5zM664 1430l-95 -119h-331l319 340h221l307 -340h-327z" />
<glyph unicode="&#xeb;" horiz-adv-x="1323" d="M870 356h349q-82 -188 -232 -290q-143 -102 -323 -103q-246 0 -424.5 175t-178.5 427q0 244 171 427.5t425 183.5q258 0 429 -179.5t171 -441.5q0 -37 -8 -90h-852q14 -98 89 -156.5t178 -58.5q122 0 206 106zM401 694h517q-14 70 -78 132.5t-180.5 62.5t-180.5 -62.5 t-78 -132.5zM260 1319v309h326v-309h-326zM737 1319v309h326v-309h-326z" />
<glyph unicode="&#xec;" horiz-adv-x="585" d="M463 1137v-1137h-340v1137h340zM6 1718l496 -262l-94 -199l-506 222z" />
<glyph unicode="&#xed;" horiz-adv-x="585" d="M463 1137v-1137h-340v1137h340zM578 1737l108 -242l-504 -223l-96 201z" />
<glyph unicode="&#xee;" horiz-adv-x="585" d="M463 1137v-1137h-340v1137h340zM295 1430l-94 -119h-332l319 340h222l307 -340h-328z" />
<glyph unicode="&#xef;" horiz-adv-x="585" d="M463 1137v-1137h-340v1137h340zM-109 1319v309h326v-309h-326zM369 1319v309h325v-309h-325z" />
<glyph unicode="&#xf0;" horiz-adv-x="1363" d="M692 860q-137 0 -209.5 -92t-72.5 -197q0 -111 71.5 -199.5t204.5 -88.5t200.5 91t67.5 197q0 109 -68.5 199t-193.5 90zM1214 1417l-247 -76q145 -119 229 -280q98 -186 98 -443q0 -276 -171 -464.5t-441 -188.5q-256 0 -434 172t-178 428q0 270 165.5 429t378.5 155 q150 -2 240 -96l4 4q-53 94 -199 190l-307 -92l-190 123l287 88q-117 53 -203 74l327 108q106 -27 207 -80l264 80z" />
<glyph unicode="&#xf1;" horiz-adv-x="1294" d="M123 0v1137h317v-121h4q100 160 310 160q80 0 161.5 -29t128.5 -70q131 -113 132 -366v-711h-340v621q0 45 -3.5 72.5t-18.5 71.5t-54 67.5t-103 23.5q-55 0 -94 -19.5t-58.5 -43t-29.5 -62.5t-11 -59.5t-1 -53.5v-618h-340zM940 1583l123 -174q-121 -76 -232 -76 q-37 0 -168 26.5t-159 26.5q-47 0 -148 -38l-123 180q127 72 226 71q45 0 215 -36q55 -14 116.5 -14.5t149.5 34.5z" />
<glyph unicode="&#xf2;" horiz-adv-x="1363" d="M70 569.5q0 108.5 38.5 213t111.5 193.5t192.5 143.5t269 54.5t269.5 -54.5t193 -143.5t111.5 -193.5t38.5 -213t-38.5 -213t-111.5 -193.5t-193 -143.5t-269.5 -54.5t-269 54.5t-192.5 143.5t-111.5 193.5t-38.5 213zM410 569q0 -123 79.5 -204.5t192.5 -81.5 t192.5 81.5t79.5 204.5t-79.5 205t-192.5 82t-192.5 -82t-79.5 -205zM446 1718l496 -262l-94 -199l-506 222z" />
<glyph unicode="&#xf3;" horiz-adv-x="1363" d="M70 569.5q0 108.5 38.5 213t111.5 193.5t192.5 143.5t269 54.5t269.5 -54.5t193 -143.5t111.5 -193.5t38.5 -213t-38.5 -213t-111.5 -193.5t-193 -143.5t-269.5 -54.5t-269 54.5t-192.5 143.5t-111.5 193.5t-38.5 213zM410 569q0 -123 79.5 -204.5t192.5 -81.5 t192.5 81.5t79.5 204.5t-79.5 205t-192.5 82t-192.5 -82t-79.5 -205zM915 1737l109 -242l-504 -223l-96 201z" />
<glyph unicode="&#xf4;" horiz-adv-x="1363" d="M70 569.5q0 108.5 38.5 213t111.5 193.5t192.5 143.5t269 54.5t269.5 -54.5t193 -143.5t111.5 -193.5t38.5 -213t-38.5 -213t-111.5 -193.5t-193 -143.5t-269.5 -54.5t-269 54.5t-192.5 143.5t-111.5 193.5t-38.5 213zM410 569q0 -123 79.5 -204.5t192.5 -81.5 t192.5 81.5t79.5 204.5t-79.5 205t-192.5 82t-192.5 -82t-79.5 -205zM684 1430l-94 -119h-332l320 340h221l307 -340h-328z" />
<glyph unicode="&#xf5;" horiz-adv-x="1363" d="M70 569.5q0 108.5 38.5 213t111.5 193.5t192.5 143.5t269 54.5t269.5 -54.5t193 -143.5t111.5 -193.5t38.5 -213t-38.5 -213t-111.5 -193.5t-193 -143.5t-269.5 -54.5t-269 54.5t-192.5 143.5t-111.5 193.5t-38.5 213zM410 569q0 -123 79.5 -204.5t192.5 -81.5 t192.5 81.5t79.5 204.5t-79.5 205t-192.5 82t-192.5 -82t-79.5 -205zM975 1583l123 -174q-121 -76 -232 -76q-35 0 -166 26.5t-161 26.5q-47 0 -148 -38l-123 180q129 72 226 71q45 0 215 -36q55 -14 116 -15q64 0 150 35z" />
<glyph unicode="&#xf6;" horiz-adv-x="1363" d="M70 569.5q0 108.5 38.5 213t111.5 193.5t192.5 143.5t269 54.5t269.5 -54.5t193 -143.5t111.5 -193.5t38.5 -213t-38.5 -213t-111.5 -193.5t-193 -143.5t-269.5 -54.5t-269 54.5t-192.5 143.5t-111.5 193.5t-38.5 213zM410 569q0 -123 79.5 -204.5t192.5 -81.5 t192.5 81.5t79.5 204.5t-79.5 205t-192.5 82t-192.5 -82t-79.5 -205zM281 1319v309h325v-309h-325zM758 1319v309h325v-309h-325z" />
<glyph unicode="&#xf7;" horiz-adv-x="1228" d="M1130 354h-1032v328h1032v-328zM774 1153v-328h-321v328h321zM774 211v-328h-321v328h321z" />
<glyph unicode="&#xf8;" horiz-adv-x="1363" d="M932 1126l125 170l219 -157l-127 -170q145 -174 145 -400q0 -111 -38.5 -216t-112.5 -193t-194 -142.5t-265 -54.5q-135 0 -248 47l-133 -180l-215 164l125 168q-143 164 -143 403q0 150 64.5 285t208.5 229.5t341 94.5q137 -1 248 -48zM436 442l303 408q-37 6 -55 6 q-115 0 -194.5 -83t-79.5 -204q-1 -68 26 -127zM930 688l-299 -401q37 -6 51 -6q123 0 197.5 86t74.5 202q1 58 -24 119z" />
<glyph unicode="&#xf9;" horiz-adv-x="1298" d="M1176 1137v-1137h-322v121h-4q-76 -158 -295 -158q-221 0 -334 143q-63 80 -82.5 153t-19.5 198v680h340v-629q0 -43 3 -70.5t18.5 -69.5t56.5 -64.5t104 -22.5q84 0 139.5 53t55.5 178v625h340zM342 1718l496 -262l-95 -199l-505 222z" />
<glyph unicode="&#xfa;" horiz-adv-x="1298" d="M1176 1137v-1137h-322v121h-4q-76 -158 -295 -158q-221 0 -334 143q-63 80 -82.5 153t-19.5 198v680h340v-629q0 -43 3 -70.5t18.5 -69.5t56.5 -64.5t104 -22.5q84 0 139.5 53t55.5 178v625h340zM954 1737l109 -242l-504 -223l-96 201z" />
<glyph unicode="&#xfb;" horiz-adv-x="1298" d="M1176 1137v-1137h-322v121h-4q-76 -158 -295 -158q-221 0 -334 143q-63 80 -82.5 153t-19.5 198v680h340v-629q0 -43 3 -70.5t18.5 -69.5t56.5 -64.5t104 -22.5q84 0 139.5 53t55.5 178v625h340zM651 1430l-94 -119h-332l320 340h221l307 -340h-328z" />
<glyph unicode="&#xfc;" horiz-adv-x="1298" d="M1176 1137v-1137h-322v121h-4q-76 -158 -295 -158q-221 0 -334 143q-63 80 -82.5 153t-19.5 198v680h340v-629q0 -43 3 -70.5t18.5 -69.5t56.5 -64.5t104 -22.5q84 0 139.5 53t55.5 178v625h340zM248 1319v309h325v-309h-325zM725 1319v309h326v-309h-326z" />
<glyph unicode="&#xfd;" horiz-adv-x="1175" d="M813 1137h361l-570 -1516h-360l180 436l-422 1080h363l227 -660h4zM893 1737l108 -242l-503 -223l-97 201z" />
<glyph unicode="&#xfe;" horiz-adv-x="1423" d="M121 -379v1895h340v-480q41 39 70.5 61.5t103.5 49.5t164 27q117 0 213 -39t159.5 -101.5t106.5 -145.5t61.5 -166t18.5 -165q0 -250 -158 -423t-397 -173q-207 0 -342 141v-481h-340zM731 279q129 0 208 87t79 201q0 111 -77 200t-210 89t-210 -89t-77 -200 q0 -115 79 -201.5t208 -86.5z" />
<glyph unicode="&#xff;" horiz-adv-x="1175" d="M813 1137h361l-570 -1516h-360l180 436l-422 1080h363l227 -660h4zM186 1319v309h326v-309h-326zM664 1319v309h325v-309h-325z" />
<glyph unicode="&#x152;" horiz-adv-x="2222" d="M2120 1516v-340h-471v-236h454v-340h-454v-260h471v-340h-844v100q-178 -129 -418 -129q-334 0 -560 231.5t-226 551.5q0 315 219 552.5t577 237.5q104 0 194.5 -25.5t127.5 -47t86 -56.5v101h844zM459 754q0 -96 39 -193.5t135 -173.5t231 -76q190 0 300 135.5 t110 317.5q0 186 -112.5 313t-295.5 127q-131 0 -226 -69.5t-138 -168.5t-43 -212z" />
<glyph unicode="&#x153;" horiz-adv-x="2203" d="M1753 354h348q-61 -143 -176 -248q-164 -145 -385 -145q-276 0 -426 205q-162 -205 -442 -205q-250 0 -426 174t-176 430q0 250 170 430.5t448 180.5q133 0 251 -56.5t175 -138.5q57 82 175 138.5t251 56.5q250 0 425 -178.5t175 -440.5q0 -43 -10 -94h-852 q10 -94 77.5 -153.5t176.5 -59.5q55 0 100 17.5t67.5 35.5t53.5 51zM1288 690h512q-20 92 -91 144.5t-165 52.5t-167 -53.5t-89 -143.5zM410 567q0 -119 80.5 -203.5t195.5 -84.5q125 0 197.5 91t72.5 199q0 115 -77.5 202t-194.5 87q-106 0 -190 -79t-84 -212z" />
<glyph unicode="&#x178;" horiz-adv-x="1325" d="M471 0v551l-453 965h420l226 -609l227 609h416l-449 -965v-551h-387zM260 1657v309h326v-309h-326zM737 1657v309h326v-309h-326z" />
<glyph unicode="&#x2c6;" horiz-adv-x="1136" d="M569 1430l-94 -119h-332l320 340h221l307 -340h-327z" />
<glyph unicode="&#x2dc;" horiz-adv-x="1136" d="M860 1583l123 -174q-121 -76 -231 -76q-35 0 -166 26.5t-162 26.5q-47 0 -148 -38l-122 180q129 72 225 71q45 0 215 -36q55 -14 117 -15q63 0 149 35z" />
<glyph unicode="&#x2000;" horiz-adv-x="1040" />
<glyph unicode="&#x2001;" horiz-adv-x="2082" />
<glyph unicode="&#x2002;" horiz-adv-x="1040" />
<glyph unicode="&#x2003;" horiz-adv-x="2082" />
<glyph unicode="&#x2004;" horiz-adv-x="694" />
<glyph unicode="&#x2005;" horiz-adv-x="520" />
<glyph unicode="&#x2006;" horiz-adv-x="346" />
<glyph unicode="&#x2007;" horiz-adv-x="346" />
<glyph unicode="&#x2008;" horiz-adv-x="260" />
<glyph unicode="&#x2009;" horiz-adv-x="415" />
<glyph unicode="&#x200a;" horiz-adv-x="114" />
<glyph unicode="&#x2010;" horiz-adv-x="575" d="M575 758v-334h-575v334h575z" />
<glyph unicode="&#x2011;" horiz-adv-x="575" d="M575 758v-334h-575v334h575z" />
<glyph unicode="&#x2012;" horiz-adv-x="575" d="M575 758v-334h-575v334h575z" />
<glyph unicode="&#x2013;" horiz-adv-x="1024" d="M952 758v-334h-880v334h880z" />
<glyph unicode="&#x2014;" horiz-adv-x="2048" d="M1976 758v-334h-1904v334h1904z" />
<glyph unicode="&#x2018;" horiz-adv-x="643" d="M143 838v430q0 133 68 190.5t141 57.5h148v-183h-74q-47 0 -66.5 -26.5t-19.5 -51.5v-69h160v-348h-357z" />
<glyph unicode="&#x2019;" horiz-adv-x="643" d="M500 1516v-431q0 -135 -67.5 -191t-141.5 -56h-148v182h74q49 0 68.5 25.5t19.5 52.5v69h-162v349h357z" />
<glyph unicode="&#x201a;" horiz-adv-x="643" d="M500 348v-430q0 -133 -67.5 -190.5t-141.5 -57.5h-148v183h74q49 0 68.5 26.5t19.5 50.5v70h-162v348h357z" />
<glyph unicode="&#x201c;" horiz-adv-x="1136" d="M643 838v430q0 133 67.5 190.5t141.5 57.5h147v-185h-73q-49 0 -68.5 -25.5t-19.5 -50.5v-69h161v-348h-356zM137 838v430q0 133 67.5 190.5t141.5 57.5h148v-185h-74q-51 0 -69.5 -25.5t-18.5 -50.5v-69h162v-348h-357z" />
<glyph unicode="&#x201d;" horiz-adv-x="1136" d="M494 1516v-431q0 -72 -21.5 -124t-56.5 -76.5t-68 -35.5t-63 -11h-148v182h74q49 0 68.5 25.5t19.5 52.5v69h-162v349h357zM999 1516v-431q0 -135 -67.5 -191t-140.5 -56h-148v182h74q49 0 67.5 25.5t18.5 52.5v69h-160v349h356z" />
<glyph unicode="&#x201e;" horiz-adv-x="1136" d="M494 348v-430q2 -133 -67 -190.5t-144 -57.5h-146v183h72q49 0 68.5 26.5t19.5 50.5v70h-160v348h357zM999 348v-430q0 -133 -67.5 -190.5t-140.5 -57.5h-148v183h74q47 0 66.5 26.5t19.5 50.5v70h-160v348h356z" />
<glyph unicode="&#x2022;" horiz-adv-x="1513" d="M760 1090q127 0 218 -93.5t91 -224.5t-92 -224t-219 -93q-129 0 -221.5 94t-92.5 223t91.5 223.5t224.5 94.5z" />
<glyph unicode="&#x2026;" horiz-adv-x="2048" d="M520 348v-348h-354v348h354zM1202 348v-348h-354v348h354zM1884 348v-348h-354v348h354z" />
<glyph unicode="&#x202f;" horiz-adv-x="415" />
<glyph unicode="&#x2039;" horiz-adv-x="454" d="M358 971v-287l-104 -92l104 -96v-285l-262 260v234z" />
<glyph unicode="&#x203a;" horiz-adv-x="454" d="M96 211v287l105 92l-105 96v285l262 -269v-231z" />
<glyph unicode="&#x205f;" horiz-adv-x="520" />
<glyph unicode="&#x20ac;" d="M862 455h387q-12 -221 -161.5 -352.5t-397.5 -131.5q-254 0 -402.5 150.5t-148.5 402.5v17h-159l67 164h92v120h-159l67 164h92q10 252 176 403.5t435 151.5q158 0 294 -51q104 -41 183 -102l-144 -299q-66 51 -125 75q-88 37 -172 37q-131 0 -192.5 -61.5t-67.5 -153.5 h512l-67 -164h-445v-120h398l-68 -164h-330v-17q0 -213 176 -213q74 0 114 42.5t46 101.5z" />
<glyph unicode="&#x2122;" horiz-adv-x="2027" d="M229 606v692h-186v218h629v-218h-185v-692h-258zM791 606v910h325l178 -568h4l177 568h325v-910h-239l4 617h-4l-179 -617h-172l-184 617l-4 -4l8 -613h-239z" />
<glyph unicode="&#xe000;" horiz-adv-x="1135" d="M0 1135h1135v-1135h-1135v1135z" />
<glyph unicode="&#xfb01;" horiz-adv-x="1230" d="M8 1137h127v59q0 348 434 348h52v-256h-39q-23 0 -43.5 -5t-42 -31.5t-21.5 -69.5v-45h633v-1137h-340v879h-293v-879h-340v879h-127v258zM1108 1516v-259h-340v259h340z" />
<glyph unicode="&#xfb02;" horiz-adv-x="1230" d="M8 1137h127v59q0 348 434 348h52v-256h-39q-23 0 -43.5 -5t-42 -31.5t-21.5 -69.5v-45h293v376h340v-1513h-340v879h-293v-879h-340v879h-127v258z" />
<glyph unicode="&#xfb03;" horiz-adv-x="1871" d="M1749 1137v-1137h-340v1137h340zM1749 1516v-259h-340v259h340zM778 0v879h-127v258h127v59q0 348 434 348h49v-256h-38q-20 0 -41 -5t-42.5 -31.5t-21.5 -69.5v-45h143v-258h-143v-879h-340zM135 0v879h-127v258h127v59q0 348 434 348h49v-256h-38q-20 0 -41 -5 t-42.5 -31.5t-21.5 -69.5v-45h143v-258h-143v-879h-340z" />
<glyph unicode="&#xfb04;" horiz-adv-x="1871" d="M1409 0v1516h340v-1516h-340zM778 0v879h-127v258h127v59q0 348 434 348h49v-256h-38q-20 0 -41 -5t-42.5 -31.5t-21.5 -69.5v-45h143v-258h-143v-879h-340zM135 0v879h-127v258h127v59q0 348 434 348h49v-256h-38q-20 0 -41 -5t-42.5 -31.5t-21.5 -69.5v-45h143v-258 h-143v-879h-340z" />
</font>
</defs>
</svg>
